<mxfile host="app.diagrams.net" modified="2023-10-10T00:14:38.691Z" agent="Mozilla/5.0 (Windows NT 10.0; Win64; x64; rv:109.0) Gecko/20100101 Firefox/118.0" etag="9OG7eDk5lUOOpcjvoLYw" version="22.0.4" type="device">
  <diagram name="Page-1" id="aq-litX7cp16xnLbbU3Z">
    <mxGraphModel dx="1434" dy="1854" grid="1" gridSize="10" guides="1" tooltips="1" connect="1" arrows="1" fold="1" page="1" pageScale="1" pageWidth="850" pageHeight="1100" math="0" shadow="0">
      <root>
        <mxCell id="0" />
        <mxCell id="1" parent="0" />
        <mxCell id="g30iVcYWDaMXl_Id7lZv-3" style="edgeStyle=orthogonalEdgeStyle;rounded=0;orthogonalLoop=1;jettySize=auto;html=1;" edge="1" parent="1" source="g30iVcYWDaMXl_Id7lZv-1" target="g30iVcYWDaMXl_Id7lZv-2">
          <mxGeometry relative="1" as="geometry" />
        </mxCell>
        <mxCell id="g30iVcYWDaMXl_Id7lZv-1" value="Cave Start" style="ellipse;whiteSpace=wrap;html=1;" vertex="1" parent="1">
          <mxGeometry x="10" y="10" width="120" height="80" as="geometry" />
        </mxCell>
        <mxCell id="g30iVcYWDaMXl_Id7lZv-11" style="edgeStyle=orthogonalEdgeStyle;rounded=0;orthogonalLoop=1;jettySize=auto;html=1;" edge="1" parent="1" source="g30iVcYWDaMXl_Id7lZv-2" target="g30iVcYWDaMXl_Id7lZv-9">
          <mxGeometry relative="1" as="geometry" />
        </mxCell>
        <mxCell id="g30iVcYWDaMXl_Id7lZv-12" style="edgeStyle=orthogonalEdgeStyle;rounded=0;orthogonalLoop=1;jettySize=auto;html=1;" edge="1" parent="1" source="g30iVcYWDaMXl_Id7lZv-2" target="g30iVcYWDaMXl_Id7lZv-10">
          <mxGeometry relative="1" as="geometry" />
        </mxCell>
        <mxCell id="g30iVcYWDaMXl_Id7lZv-2" value="Watery Cave" style="rounded=1;whiteSpace=wrap;html=1;" vertex="1" parent="1">
          <mxGeometry x="260" y="20" width="120" height="60" as="geometry" />
        </mxCell>
        <mxCell id="g30iVcYWDaMXl_Id7lZv-57" style="edgeStyle=orthogonalEdgeStyle;rounded=0;orthogonalLoop=1;jettySize=auto;html=1;" edge="1" parent="1" source="g30iVcYWDaMXl_Id7lZv-6" target="g30iVcYWDaMXl_Id7lZv-56">
          <mxGeometry relative="1" as="geometry">
            <Array as="points">
              <mxPoint x="790" y="40" />
            </Array>
          </mxGeometry>
        </mxCell>
        <mxCell id="g30iVcYWDaMXl_Id7lZv-6" value="Silent Cave" style="rounded=1;whiteSpace=wrap;html=1;" vertex="1" parent="1">
          <mxGeometry x="620" y="10" width="120" height="60" as="geometry" />
        </mxCell>
        <mxCell id="g30iVcYWDaMXl_Id7lZv-13" style="edgeStyle=orthogonalEdgeStyle;rounded=0;orthogonalLoop=1;jettySize=auto;html=1;" edge="1" parent="1" source="g30iVcYWDaMXl_Id7lZv-9" target="g30iVcYWDaMXl_Id7lZv-1">
          <mxGeometry relative="1" as="geometry" />
        </mxCell>
        <mxCell id="g30iVcYWDaMXl_Id7lZv-16" style="edgeStyle=orthogonalEdgeStyle;rounded=0;orthogonalLoop=1;jettySize=auto;html=1;" edge="1" parent="1" source="g30iVcYWDaMXl_Id7lZv-9" target="g30iVcYWDaMXl_Id7lZv-14">
          <mxGeometry relative="1" as="geometry">
            <mxPoint x="120" y="240" as="targetPoint" />
            <Array as="points">
              <mxPoint x="200" y="230" />
              <mxPoint x="110" y="230" />
            </Array>
          </mxGeometry>
        </mxCell>
        <mxCell id="g30iVcYWDaMXl_Id7lZv-9" value="Upstream" style="shape=tape;whiteSpace=wrap;html=1;" vertex="1" parent="1">
          <mxGeometry x="140" y="120" width="120" height="100" as="geometry" />
        </mxCell>
        <mxCell id="g30iVcYWDaMXl_Id7lZv-18" style="edgeStyle=orthogonalEdgeStyle;rounded=0;orthogonalLoop=1;jettySize=auto;html=1;entryX=0.5;entryY=0;entryDx=0;entryDy=0;" edge="1" parent="1" source="g30iVcYWDaMXl_Id7lZv-10" target="g30iVcYWDaMXl_Id7lZv-17">
          <mxGeometry relative="1" as="geometry" />
        </mxCell>
        <mxCell id="g30iVcYWDaMXl_Id7lZv-19" style="edgeStyle=orthogonalEdgeStyle;rounded=0;orthogonalLoop=1;jettySize=auto;html=1;" edge="1" parent="1" source="g30iVcYWDaMXl_Id7lZv-10" target="g30iVcYWDaMXl_Id7lZv-1">
          <mxGeometry relative="1" as="geometry">
            <Array as="points">
              <mxPoint x="70" y="170" />
            </Array>
          </mxGeometry>
        </mxCell>
        <mxCell id="g30iVcYWDaMXl_Id7lZv-10" value="Downstream" style="shape=tape;whiteSpace=wrap;html=1;" vertex="1" parent="1">
          <mxGeometry x="380" y="120" width="120" height="100" as="geometry" />
        </mxCell>
        <mxCell id="g30iVcYWDaMXl_Id7lZv-14" value="End Game&lt;br&gt;(Conditional Victory)" style="rhombus;whiteSpace=wrap;html=1;" vertex="1" parent="1">
          <mxGeometry x="50" y="240" width="80" height="80" as="geometry" />
        </mxCell>
        <mxCell id="g30iVcYWDaMXl_Id7lZv-25" style="edgeStyle=orthogonalEdgeStyle;rounded=0;orthogonalLoop=1;jettySize=auto;html=1;" edge="1" parent="1" source="g30iVcYWDaMXl_Id7lZv-17">
          <mxGeometry relative="1" as="geometry">
            <mxPoint x="350" y="330" as="targetPoint" />
          </mxGeometry>
        </mxCell>
        <mxCell id="g30iVcYWDaMXl_Id7lZv-26" style="edgeStyle=orthogonalEdgeStyle;rounded=0;orthogonalLoop=1;jettySize=auto;html=1;" edge="1" parent="1" source="g30iVcYWDaMXl_Id7lZv-17">
          <mxGeometry relative="1" as="geometry">
            <mxPoint x="550" y="330" as="targetPoint" />
          </mxGeometry>
        </mxCell>
        <mxCell id="g30iVcYWDaMXl_Id7lZv-17" value="Keep going/Find ahsoka pinned &lt;br&gt;(Monster Awakens)" style="rounded=1;whiteSpace=wrap;html=1;" vertex="1" parent="1">
          <mxGeometry x="380" y="260" width="120" height="60" as="geometry" />
        </mxCell>
        <mxCell id="g30iVcYWDaMXl_Id7lZv-30" style="edgeStyle=orthogonalEdgeStyle;rounded=0;orthogonalLoop=1;jettySize=auto;html=1;entryX=0.5;entryY=0;entryDx=0;entryDy=0;" edge="1" parent="1" source="g30iVcYWDaMXl_Id7lZv-21" target="g30iVcYWDaMXl_Id7lZv-29">
          <mxGeometry relative="1" as="geometry" />
        </mxCell>
        <mxCell id="g30iVcYWDaMXl_Id7lZv-21" value="Heal before leaving" style="shape=parallelogram;perimeter=parallelogramPerimeter;whiteSpace=wrap;html=1;fixedSize=1;" vertex="1" parent="1">
          <mxGeometry x="480" y="340" width="120" height="60" as="geometry" />
        </mxCell>
        <mxCell id="g30iVcYWDaMXl_Id7lZv-28" style="edgeStyle=orthogonalEdgeStyle;rounded=0;orthogonalLoop=1;jettySize=auto;html=1;entryX=0.5;entryY=0;entryDx=0;entryDy=0;" edge="1" parent="1" source="g30iVcYWDaMXl_Id7lZv-22" target="g30iVcYWDaMXl_Id7lZv-27">
          <mxGeometry relative="1" as="geometry" />
        </mxCell>
        <mxCell id="g30iVcYWDaMXl_Id7lZv-32" style="edgeStyle=orthogonalEdgeStyle;rounded=0;orthogonalLoop=1;jettySize=auto;html=1;" edge="1" parent="1" source="g30iVcYWDaMXl_Id7lZv-22" target="g30iVcYWDaMXl_Id7lZv-31">
          <mxGeometry relative="1" as="geometry" />
        </mxCell>
        <mxCell id="g30iVcYWDaMXl_Id7lZv-22" value="Carry to Cave start&lt;br&gt;then heal" style="shape=parallelogram;perimeter=parallelogramPerimeter;whiteSpace=wrap;html=1;fixedSize=1;" vertex="1" parent="1">
          <mxGeometry x="290" y="340" width="120" height="60" as="geometry" />
        </mxCell>
        <mxCell id="g30iVcYWDaMXl_Id7lZv-27" value="Fight Alone(Loss)" style="rounded=0;whiteSpace=wrap;html=1;" vertex="1" parent="1">
          <mxGeometry x="110" y="430" width="120" height="60" as="geometry" />
        </mxCell>
        <mxCell id="g30iVcYWDaMXl_Id7lZv-35" style="edgeStyle=orthogonalEdgeStyle;rounded=0;orthogonalLoop=1;jettySize=auto;html=1;" edge="1" parent="1" source="g30iVcYWDaMXl_Id7lZv-29" target="g30iVcYWDaMXl_Id7lZv-33">
          <mxGeometry relative="1" as="geometry" />
        </mxCell>
        <mxCell id="g30iVcYWDaMXl_Id7lZv-29" value="Fight Together&lt;br&gt;(Victory)" style="rounded=0;whiteSpace=wrap;html=1;" vertex="1" parent="1">
          <mxGeometry x="620" y="430" width="120" height="60" as="geometry" />
        </mxCell>
        <mxCell id="g30iVcYWDaMXl_Id7lZv-39" style="edgeStyle=orthogonalEdgeStyle;rounded=0;orthogonalLoop=1;jettySize=auto;html=1;" edge="1" parent="1" source="g30iVcYWDaMXl_Id7lZv-31">
          <mxGeometry relative="1" as="geometry">
            <mxPoint x="260" y="510" as="targetPoint" />
          </mxGeometry>
        </mxCell>
        <mxCell id="g30iVcYWDaMXl_Id7lZv-40" style="edgeStyle=orthogonalEdgeStyle;rounded=0;orthogonalLoop=1;jettySize=auto;html=1;" edge="1" parent="1" source="g30iVcYWDaMXl_Id7lZv-31">
          <mxGeometry relative="1" as="geometry">
            <mxPoint x="460" y="510" as="targetPoint" />
          </mxGeometry>
        </mxCell>
        <mxCell id="g30iVcYWDaMXl_Id7lZv-31" value="Run Farther into cave&lt;br&gt;to escape (Given option)" style="rounded=0;whiteSpace=wrap;html=1;" vertex="1" parent="1">
          <mxGeometry x="290" y="430" width="120" height="60" as="geometry" />
        </mxCell>
        <mxCell id="g30iVcYWDaMXl_Id7lZv-33" value="Use force on plane together. (Escape)" style="rounded=0;whiteSpace=wrap;html=1;" vertex="1" parent="1">
          <mxGeometry x="470" y="430" width="120" height="60" as="geometry" />
        </mxCell>
        <mxCell id="g30iVcYWDaMXl_Id7lZv-34" style="edgeStyle=orthogonalEdgeStyle;rounded=0;orthogonalLoop=1;jettySize=auto;html=1;entryX=0.608;entryY=0.05;entryDx=0;entryDy=0;entryPerimeter=0;" edge="1" parent="1" source="g30iVcYWDaMXl_Id7lZv-21" target="g30iVcYWDaMXl_Id7lZv-33">
          <mxGeometry relative="1" as="geometry" />
        </mxCell>
        <mxCell id="g30iVcYWDaMXl_Id7lZv-41" style="edgeStyle=orthogonalEdgeStyle;rounded=0;orthogonalLoop=1;jettySize=auto;html=1;entryX=0.925;entryY=0.69;entryDx=0;entryDy=0;entryPerimeter=0;" edge="1" parent="1" source="g30iVcYWDaMXl_Id7lZv-37" target="g30iVcYWDaMXl_Id7lZv-9">
          <mxGeometry relative="1" as="geometry">
            <mxPoint x="250" y="210" as="targetPoint" />
            <Array as="points">
              <mxPoint x="61" y="550" />
              <mxPoint x="61" y="410" />
              <mxPoint x="160" y="410" />
              <mxPoint x="160" y="300" />
              <mxPoint x="220" y="300" />
              <mxPoint x="220" y="260" />
              <mxPoint x="250" y="260" />
              <mxPoint x="250" y="193" />
              <mxPoint x="251" y="193" />
            </Array>
          </mxGeometry>
        </mxCell>
        <mxCell id="g30iVcYWDaMXl_Id7lZv-43" value="" style="edgeStyle=orthogonalEdgeStyle;rounded=0;orthogonalLoop=1;jettySize=auto;html=1;" edge="1" parent="1" source="g30iVcYWDaMXl_Id7lZv-37" target="g30iVcYWDaMXl_Id7lZv-42">
          <mxGeometry relative="1" as="geometry" />
        </mxCell>
        <mxCell id="g30iVcYWDaMXl_Id7lZv-37" value="Watery Cave&lt;br&gt;(Upstream exit)&lt;span style=&quot;white-space: pre;&quot;&gt;&#x9;&lt;/span&gt;" style="shape=parallelogram;perimeter=parallelogramPerimeter;whiteSpace=wrap;html=1;fixedSize=1;" vertex="1" parent="1">
          <mxGeometry x="170" y="520" width="120" height="60" as="geometry" />
        </mxCell>
        <mxCell id="g30iVcYWDaMXl_Id7lZv-45" value="" style="edgeStyle=orthogonalEdgeStyle;rounded=0;orthogonalLoop=1;jettySize=auto;html=1;" edge="1" parent="1" source="g30iVcYWDaMXl_Id7lZv-38" target="g30iVcYWDaMXl_Id7lZv-44">
          <mxGeometry relative="1" as="geometry" />
        </mxCell>
        <mxCell id="g30iVcYWDaMXl_Id7lZv-47" value="" style="edgeStyle=orthogonalEdgeStyle;rounded=0;orthogonalLoop=1;jettySize=auto;html=1;" edge="1" parent="1" source="g30iVcYWDaMXl_Id7lZv-38" target="g30iVcYWDaMXl_Id7lZv-46">
          <mxGeometry relative="1" as="geometry" />
        </mxCell>
        <mxCell id="g30iVcYWDaMXl_Id7lZv-38" value="Silent Cave&lt;br&gt;(No Exit, force to fight)" style="shape=parallelogram;perimeter=parallelogramPerimeter;whiteSpace=wrap;html=1;fixedSize=1;" vertex="1" parent="1">
          <mxGeometry x="410" y="520" width="120" height="60" as="geometry" />
        </mxCell>
        <mxCell id="g30iVcYWDaMXl_Id7lZv-42" value="End Game&lt;br&gt;(Loss)" style="rhombus;whiteSpace=wrap;html=1;" vertex="1" parent="1">
          <mxGeometry x="190" y="650" width="80" height="80" as="geometry" />
        </mxCell>
        <mxCell id="g30iVcYWDaMXl_Id7lZv-51" style="edgeStyle=orthogonalEdgeStyle;rounded=0;orthogonalLoop=1;jettySize=auto;html=1;entryX=1;entryY=0.75;entryDx=0;entryDy=0;" edge="1" parent="1" source="g30iVcYWDaMXl_Id7lZv-44" target="g30iVcYWDaMXl_Id7lZv-46">
          <mxGeometry relative="1" as="geometry">
            <Array as="points">
              <mxPoint x="555" y="630" />
              <mxPoint x="555" y="655" />
            </Array>
          </mxGeometry>
        </mxCell>
        <mxCell id="g30iVcYWDaMXl_Id7lZv-53" style="edgeStyle=orthogonalEdgeStyle;rounded=0;orthogonalLoop=1;jettySize=auto;html=1;entryX=0;entryY=0.5;entryDx=0;entryDy=0;" edge="1" parent="1" source="g30iVcYWDaMXl_Id7lZv-44" target="g30iVcYWDaMXl_Id7lZv-49">
          <mxGeometry relative="1" as="geometry" />
        </mxCell>
        <mxCell id="g30iVcYWDaMXl_Id7lZv-44" value="&lt;div&gt;Hide&lt;/div&gt;&lt;div&gt;&lt;br&gt;&lt;/div&gt;" style="whiteSpace=wrap;html=1;" vertex="1" parent="1">
          <mxGeometry x="580" y="580" width="120" height="60" as="geometry" />
        </mxCell>
        <mxCell id="g30iVcYWDaMXl_Id7lZv-46" value="Fight ALone&lt;br&gt;(Loss)" style="whiteSpace=wrap;html=1;" vertex="1" parent="1">
          <mxGeometry x="410" y="610" width="120" height="60" as="geometry" />
        </mxCell>
        <mxCell id="g30iVcYWDaMXl_Id7lZv-54" style="edgeStyle=orthogonalEdgeStyle;rounded=0;orthogonalLoop=1;jettySize=auto;html=1;" edge="1" parent="1" source="g30iVcYWDaMXl_Id7lZv-49">
          <mxGeometry relative="1" as="geometry">
            <mxPoint x="750" y="460" as="targetPoint" />
            <Array as="points">
              <mxPoint x="810" y="515" />
              <mxPoint x="811" y="515" />
            </Array>
          </mxGeometry>
        </mxCell>
        <mxCell id="g30iVcYWDaMXl_Id7lZv-49" value="Heal Ahsoka" style="rounded=1;whiteSpace=wrap;html=1;" vertex="1" parent="1">
          <mxGeometry x="720" y="580" width="120" height="60" as="geometry" />
        </mxCell>
        <mxCell id="g30iVcYWDaMXl_Id7lZv-55" value="" style="endArrow=classic;startArrow=classic;html=1;rounded=0;" edge="1" parent="1" source="g30iVcYWDaMXl_Id7lZv-1" target="g30iVcYWDaMXl_Id7lZv-6">
          <mxGeometry width="50" height="50" relative="1" as="geometry">
            <mxPoint x="400" y="400" as="sourcePoint" />
            <mxPoint x="450" y="350" as="targetPoint" />
            <Array as="points">
              <mxPoint x="290" />
            </Array>
          </mxGeometry>
        </mxCell>
        <mxCell id="g30iVcYWDaMXl_Id7lZv-58" style="edgeStyle=orthogonalEdgeStyle;rounded=0;orthogonalLoop=1;jettySize=auto;html=1;" edge="1" parent="1" source="g30iVcYWDaMXl_Id7lZv-56" target="g30iVcYWDaMXl_Id7lZv-1">
          <mxGeometry relative="1" as="geometry">
            <Array as="points">
              <mxPoint x="830" y="-30" />
              <mxPoint x="70" y="-30" />
            </Array>
          </mxGeometry>
        </mxCell>
        <mxCell id="g30iVcYWDaMXl_Id7lZv-60" style="edgeStyle=orthogonalEdgeStyle;rounded=0;orthogonalLoop=1;jettySize=auto;html=1;entryX=0.5;entryY=0;entryDx=0;entryDy=0;" edge="1" parent="1" source="g30iVcYWDaMXl_Id7lZv-56" target="g30iVcYWDaMXl_Id7lZv-59">
          <mxGeometry relative="1" as="geometry" />
        </mxCell>
        <mxCell id="g30iVcYWDaMXl_Id7lZv-56" value="Search Silent Cave&lt;br&gt;(Monster Awakens Turn after)" style="rounded=1;whiteSpace=wrap;html=1;" vertex="1" parent="1">
          <mxGeometry x="730" y="80" width="120" height="60" as="geometry" />
        </mxCell>
        <mxCell id="g30iVcYWDaMXl_Id7lZv-64" style="edgeStyle=orthogonalEdgeStyle;rounded=0;orthogonalLoop=1;jettySize=auto;html=1;" edge="1" parent="1" source="g30iVcYWDaMXl_Id7lZv-59" target="g30iVcYWDaMXl_Id7lZv-62">
          <mxGeometry relative="1" as="geometry" />
        </mxCell>
        <mxCell id="g30iVcYWDaMXl_Id7lZv-59" value="Stay in Silent cave&lt;br&gt;(Monster Awakens), Trapping you in)" style="rounded=1;whiteSpace=wrap;html=1;" vertex="1" parent="1">
          <mxGeometry x="730" y="180" width="120" height="60" as="geometry" />
        </mxCell>
        <mxCell id="g30iVcYWDaMXl_Id7lZv-61" value="Fight Alone&lt;br&gt;(loss)" style="rhombus;whiteSpace=wrap;html=1;" vertex="1" parent="1">
          <mxGeometry x="620" y="130" width="80" height="80" as="geometry" />
        </mxCell>
        <mxCell id="g30iVcYWDaMXl_Id7lZv-62" value="Try to Escape&lt;br&gt;(Loss)" style="rhombus;whiteSpace=wrap;html=1;" vertex="1" parent="1">
          <mxGeometry x="750" y="270" width="80" height="80" as="geometry" />
        </mxCell>
        <mxCell id="g30iVcYWDaMXl_Id7lZv-63" style="edgeStyle=orthogonalEdgeStyle;rounded=0;orthogonalLoop=1;jettySize=auto;html=1;entryX=0.663;entryY=0.875;entryDx=0;entryDy=0;entryPerimeter=0;" edge="1" parent="1" source="g30iVcYWDaMXl_Id7lZv-59" target="g30iVcYWDaMXl_Id7lZv-61">
          <mxGeometry relative="1" as="geometry" />
        </mxCell>
      </root>
    </mxGraphModel>
  </diagram>
</mxfile>
